# xmcd CD database file
#
# Track frame offsets:
#	187
#	7430
#	24215
#
# Disc length: 664 seconds
#
# Revision: 0
# Processed by: cddbd v1.5.1PL0 Copyright (c) Steve Scherf et al.
# Submitted via: CDex 1.51
#
DISCID=1b029603
DTITLE=MIRAGE - ジェネシス
DYEAR=1997
DGENRE=Rock
TTITLE0=幻想の告白
TTITLE1=Cradle of Labyrinth
TTITLE2=Dress
EXTD=YEAR: 1997
EXTT0=
EXTT1=
EXTT2=
PLAYORDER=
